<?xml version="1.0" encoding="utf-8"?>
<!-- Generator: Adobe Illustrator 22.0.0, SVG Export Plug-In . SVG Version: 6.00 Build 0)  -->
<svg version="1.1" id="Layer_1" xmlns="http://www.w3.org/2000/svg" xmlns:xlink="http://www.w3.org/1999/xlink" x="0px" y="0px"
	 viewBox="0 0 4000 4000" style="enable-background:new 0 0 4000 4000;" xml:space="preserve">
<style type="text/css">
	.Graphic_x0020_Style_x0020_60{fill:#4D73C6;}
	.Graphic_x0020_Style_x0020_51{fill:#DB6767;}
	
		.Graphic_x0020_Style_x0020_74{fill:none;stroke:#3DBE88;stroke-width:2;stroke-linecap:round;stroke-linejoin:round;stroke-miterlimit:10;}
	
		.Graphic_x0020_Style_x0020_62{fill:none;stroke:#10663F;stroke-width:2;stroke-linecap:round;stroke-linejoin:round;stroke-miterlimit:10;}
	
		.Graphic_x0020_Style_x0020_209{fill:none;stroke:#1A1A1A;stroke-width:2;stroke-linecap:round;stroke-linejoin:round;stroke-miterlimit:10;}
	.Graphic_x0020_Style_x0020_212{fill:#FFFFFF;}
	.Graphic_x0020_Style_x0020_216{fill:#1A1A1A;}
	.Graphic_x0020_Style_x0020_50{fill:#152A52;}
	.Graphic_x0020_Style_x0020_58{fill:#102140;}
	
		.Graphic_x0020_Style_x0020_61{fill:none;stroke:#3DBE88;stroke-width:2;stroke-linecap:round;stroke-linejoin:round;stroke-miterlimit:10;}
	.Graphic_x0020_Style_x0020_90{fill:#127755;}
	.Graphic_x0020_Style_x0020_99{fill:#B080B0;}
	.Graphic_x0020_Style_x0020_86{fill:#572658;}
	.Graphic_x0020_Style_x0020_47{fill:#FFCF4A;}
	
		.Graphic_x0020_Style_x0020_27{fill:#1A1A1A;stroke:#1A1A1A;stroke-width:2;stroke-linecap:round;stroke-linejoin:round;stroke-miterlimit:10;}
	.Graphic_x0020_Style_x0020_52{fill:url(#SVGID_1_);}
	.Graphic_x0020_Style_x0020_78{fill:#FFDE70;}
	.Graphic_x0020_Style_x0020_210{fill:#CCC4CC;}
	.Graphic_x0020_Style_x0020_219{fill:#DB6767;}
	.Graphic_x0020_Style_x0020_89{fill:#EB485C;}
	.Graphic_x0020_Style_x0020_44{fill:#EF5668;}
	.Graphic_x0020_Style_x0020_88{fill:#D1334A;}
	.st0{fill:url(#SVGID_2_);}
	.st1{fill:url(#SVGID_3_);}
	.st2{fill:#FFEBA9;}
	.st3{fill:#666266;}
	.st4{fill:#999399;}
	.st5{fill:none;stroke:#1A1A1A;stroke-width:3;stroke-linecap:round;stroke-linejoin:round;stroke-miterlimit:10;}
	.st6{fill:#CCC4CC;}
	.st7{fill:#D6D0D6;}
	.st8{fill:#152A52;}
	.st9{fill:#102140;}
	.st10{fill:#EB485C;}
	.st11{fill:#FC9590;}
	.st12{fill:#339E7E;}
	.st13{fill:#00593B;}
	.st14{fill:url(#SVGID_4_);}
	.st15{fill:url(#SVGID_5_);}
	.st16{fill:url(#SVGID_6_);}
	.st17{fill:url(#SVGID_7_);}
</style>
<linearGradient id="SVGID_1_" gradientUnits="userSpaceOnUse" x1="0" y1="0" x2="1" y2="0">
	<stop  offset="0" style="stop-color:#4085F0"/>
	<stop  offset="1" style="stop-color:#275DC9"/>
</linearGradient>
<g>
	<linearGradient id="SVGID_2_" gradientUnits="userSpaceOnUse" x1="782.0663" y1="2901.4192" x2="3677.5886" y2="2901.4192">
		<stop  offset="0" style="stop-color:#68B2FC"/>
		<stop  offset="1" style="stop-color:#EBF0F7"/>
	</linearGradient>
	<path class="st0" d="M782.1,3227.6c2.4-18.9,35.5-244.2,238.6-343.6c137.8-67.4,269.3-35.5,305.5-25.5
		c54.5-170.7,207.8-285,372.3-283.2c198.2,2.1,310,171.6,318.2,184.5c43-36.4,123.5-94.1,238.6-120.9
		c203.3-47.3,368.1,35.5,413.6,60.5c59.3-26.1,272.9-111.4,528.2-35c326.8,97.8,460.7,382.4,480.5,426.4
		C2712.4,3136.4,1747.2,3182,782.1,3227.6z"/>
	<linearGradient id="SVGID_3_" gradientUnits="userSpaceOnUse" x1="90.8645" y1="3160.7646" x2="3909.1355" y2="3160.7646">
		<stop  offset="0" style="stop-color:#68B2FC"/>
		<stop  offset="1" style="stop-color:#529BF7"/>
	</linearGradient>
	<path class="st1" d="M3909.1,3106.5c0-91.5-672.4-165.6-1501.9-165.6S905.4,3015,905.4,3106.5c0,20.3,33.1,39.7,93.6,57.7
		c-510.2,5.6-908.1,51.8-908.1,108c0,60,453.8,108.6,1013.5,108.6s1013.5-48.6,1013.5-108.6c0-1-0.1-2.1-0.4-3.1
		c93.8,2,190.7,3.1,289.9,3.1c60.3,0,119.8-0.4,178.3-1.2c0,0.4-0.1,0.8-0.1,1.2c0,60,289.2,108.6,645.9,108.6
		c356.7,0,645.9-48.6,645.9-108.6c0-30.6-75.2-58.2-196-77.9C3825.7,3168.8,3909.1,3138.7,3909.1,3106.5z"/>
	<g>
		<path class="Graphic_x0020_Style_x0020_78" d="M2927.7,1283.5c0-366.8-297.4-664.2-664.2-664.2c-366.8,0-664.2,297.4-664.2,664.2
			c0,188.8,78.8,359.1,205.2,480l-1.7,0.9c0,0,175,123.6,179.6,511.6c59.9,201.5,281.2,167.9,281.2,167.9s221.2,33.6,281.2-167.9
			c4.6-388.1,179.6-511.6,179.6-511.6l-1.7-0.9C2848.9,1642.6,2927.7,1472.3,2927.7,1283.5z"/>
		<path class="st2" d="M1645.2,1182.6c0,0,175.7,169.6,363.5,177s-102.6,413.1-179.4,339.1
			C1752.5,1624.7,1616.5,1513.7,1645.2,1182.6z"/>
		<path class="Graphic_x0020_Style_x0020_47" d="M2263.5,619.3c-114.7,0-222.7,29.1-316.8,80.3c214.6,39,665,159.9,680.2,529.5
			c19.7,480.7-287.2,665.2-287.2,665.2v549.2c69.9-8.5,168.1-43.4,205-167.6c4.6-388.1,179.6-511.6,179.6-511.6l-1.8-0.9
			c126.4-120.9,205.2-291.3,205.2-480C2927.7,916.7,2630.3,619.3,2263.5,619.3z"/>
		<path class="st3" d="M2023.7,2620.1c50.2,79.5,138.9,132.3,239.8,132.3c54.7,0,105.7-15.5,149.1-42.4
			c-78.4-11.4-150.1-51.5-226.3-76.9C2134.8,2615,2079.2,2617.4,2023.7,2620.1z"/>
		<path class="st4" d="M2518.4,2593.2h-509.8c4.5,9.3,9.6,18.2,15,26.9c55.5-2.7,111.1-5.1,162.5,13.1
			c76.2,25.4,147.9,65.5,226.3,76.9C2457.9,2681.9,2494.8,2641.4,2518.4,2593.2z"/>
		<path class="st5" d="M2384.6,2725.3c0.3,58.6,0.8,121.6,0.8,121.6s-4.5,152.2,106,167s272.7,0,272.7,0"/>
		<path class="st5" d="M2141.4,2333.4c-7.8-352.6-23-746.5-23-746.5s-20.8-117-152.6-80.7c-131.8,36.4-4.5,249.9,251.5,206
			c256-43.9,75.7-313.9-6.1-213s42.4,266,209,199.4c166.6-66.7,154.5-205.8,42.4-221.8c-112.1-16-71.2,203.6-77.3,347.5
			c-2.7,65.1-3,280.4-2.5,496.7"/>
		<path class="st5" d="M1205.3,3001.8l739.3,12.2c0,0,170.4-14.8,194.3-148.8c3.5-19.5,5.5-81.6,6.4-137.4"/>
		<path class="st4" d="M2600.6,2262.4c0-13.1-5.3-24.9-13.8-33.4c-8.5-8.5-20.4-13.8-33.4-13.8h-579.6c-26.1,0-47.3,21.2-47.3,47.3
			c0,1.4,0.1,2.9,0.2,4.3h673.7C2600.5,2265.2,2600.6,2263.8,2600.6,2262.4z"/>
		<path class="st3" d="M1926.7,2266.6c1,11.3,6,21.5,13.6,29.1c8.6,8.5,20.4,13.8,33.4,13.8h579.6c24.6,0,44.9-18.9,47-43H1926.7z"
			/>
		<path class="st4" d="M2600.6,2356.9c0-13.1-5.3-24.9-13.8-33.4c-8.5-8.6-20.4-13.9-33.4-13.9h-579.6c-26.1,0-47.3,21.2-47.3,47.3
			c0,4,0.6,7.9,1.5,11.6h671.1C2600,2364.7,2600.6,2360.9,2600.6,2356.9z"/>
		<path class="st3" d="M1927.9,2368.5c2.1,8.4,6.4,15.9,12.3,21.8c8.6,8.5,20.4,13.8,33.4,13.8h579.6c22.1,0,40.6-15.2,45.8-35.7
			H1927.9z"/>
		<path class="st4" d="M2600.6,2451.4c0-13.1-5.3-24.9-13.8-33.4c-8.5-8.5-20.4-13.8-33.4-13.8h-579.6c-26.1,0-47.3,21.2-47.3,47.3
			c0,3.6,0.4,7,1.2,10.4h671.8C2600.1,2458.4,2600.6,2455,2600.6,2451.4z"/>
		<path class="st3" d="M1927.6,2461.8c2,8.9,6.4,16.8,12.7,23c8.6,8.6,20.4,13.9,33.4,13.9h579.6c22.5,0,41.3-15.8,46.1-36.9H1927.6
			z"/>
		<path class="st4" d="M2600.6,2545.9c0-13-5.3-24.9-13.8-33.4c-8.5-8.5-20.4-13.8-33.4-13.8h-579.6c-26.1,0-47.3,21.2-47.3,47.2
			c0,4.3,0.6,8.4,1.7,12.4h670.7C2600,2554.4,2600.6,2550.2,2600.6,2545.9z"/>
		<path class="st3" d="M1928.2,2558.3c2.2,8.1,6.4,15.3,12.1,21c8.6,8.5,20.4,13.8,33.4,13.8h579.6c21.8,0,40.1-14.8,45.5-34.9
			H1928.2z"/>
		<path class="st6" d="M2079,2266.6c1,11.3,6,21.5,13.6,29.1c8.6,8.5,20.4,13.8,33.4,13.8h427.3c24.6,0,44.9-18.9,47-43H2079z"/>
		<path class="st7" d="M2600.6,2262.4c0-13.1-5.3-24.9-13.8-33.4c-8.5-8.5-20.4-13.8-33.4-13.8H2126c-26.1,0-47.3,21.2-47.3,47.3
			c0,1.4,0.1,2.9,0.2,4.3h521.4C2600.5,2265.2,2600.6,2263.8,2600.6,2262.4z"/>
		<path class="st7" d="M2600.6,2356.9c0-13.1-5.3-24.9-13.8-33.4c-8.5-8.6-20.4-13.9-33.4-13.9H2126c-26.1,0-47.3,21.2-47.3,47.3
			c0,4,0.6,7.9,1.5,11.6h518.8C2600,2364.7,2600.6,2360.9,2600.6,2356.9z"/>
		<path class="Graphic_x0020_Style_x0020_210" d="M2080.2,2368.5c2.1,8.4,6.4,15.9,12.3,21.8c8.6,8.5,20.4,13.8,33.4,13.8h427.3
			c22.1,0,40.6-15.2,45.8-35.7H2080.2z"/>
		<path class="st7" d="M2600.6,2451.4c0-13.1-5.3-24.9-13.8-33.4c-8.5-8.5-20.4-13.8-33.4-13.8H2126c-26.1,0-47.3,21.2-47.3,47.3
			c0,3.6,0.4,7,1.2,10.4h519.5C2600.1,2458.4,2600.6,2455,2600.6,2451.4z"/>
		<path class="Graphic_x0020_Style_x0020_210" d="M2079.9,2461.8c2,8.9,6.4,16.8,12.7,23c8.6,8.6,20.4,13.9,33.4,13.9h427.3
			c22.5,0,41.3-15.8,46.1-36.9H2079.9z"/>
		<path class="st7" d="M2600.6,2545.9c0-13-5.3-24.9-13.8-33.4c-8.5-8.5-20.4-13.8-33.4-13.8H2126c-26.1,0-47.3,21.2-47.3,47.2
			c0,4.3,0.6,8.4,1.7,12.4h518.4C2600,2554.4,2600.6,2550.2,2600.6,2545.9z"/>
		<path class="Graphic_x0020_Style_x0020_210" d="M2080.4,2558.3c2.2,8.1,6.4,15.3,12.1,21c8.6,8.5,20.4,13.8,33.4,13.8h427.3
			c21.8,0,40.1-14.8,45.5-34.9H2080.4z"/>
	</g>
	<path class="Graphic_x0020_Style_x0020_216" d="M1607,3042.4l68.9,110.3c0,0-9.5,105,28.6,112.2c38.2,7.2,202.8,2.4,207.6,0
		c2.3-1.2,32.5-26.9,11.9-46.4c-22-20.8-95.9-36.1-129.4-56.2c-68.9-41.4-102.1-119.9-102.1-119.9H1607z"/>
	<path class="Graphic_x0020_Style_x0020_216" d="M514.1,2961.6l-85.2,93.4c0,0-89.9,45.3-81.6,83.3c8.3,37.9,77,187.7,81,191.2
		c2,1.7,37.4,19.5,47.4-7.1c10.6-28.4-4.2-102.4,1.3-141.1c11.2-79.6,70.5-111.1,70.5-111.1L514.1,2961.6z"/>
	<path class="st8" d="M1730.1,3075.3c-33.4,47.7-138.2,92-181.2,9.1c-1.9-3.7-5.4-9.4-10.1-16.9c-59.6-94-328.9-471.2-495.8-775.4
		c-116.6-212.4-154.5-444.8-133.8-467.3c37.5-40.9,194.4-23.4,281-10c34.6,5.3,57.9,10,57.9,10S1763.5,3027.5,1730.1,3075.3z"/>
	<path class="st9" d="M1730.1,3075.3c-33.4,47.7-138.2,92-181.2,9.1c-1.9-3.7-5.4-9.4-10.1-16.9c29.1-14.6,78.8-35.4,102.5-58.5
		c34.2-33.5-34.3-203-70.5-362.8c-33-145.6-328.4-728.8-380.6-831.4c34.6,5.3,57.9,10,57.9,10S1763.5,3027.5,1730.1,3075.3z"/>
	<path class="Graphic_x0020_Style_x0020_50" d="M1145.3,2123.4c-4.4,45.2-8.3,92.1-12.1,138.3c-8.6,103.7-16.8,204.2-30,275.4
		c-39.7,214.8-399.3,509.5-580.7,562c-37.3-14.2-56.7-33.7-66.5-52.5c-16.4-31.9-5.1-62-5.1-62s328.7-257.2,347.7-482.1
		c7.8-91.9-45.5-300.5-50-420c-6.7-178.2,31.7-257.7,31.7-257.7h308.2L1145.3,2123.4z"/>
	<path class="Graphic_x0020_Style_x0020_58" d="M1133.2,2261.7c-8.6,103.7-16.8,204.2-30,275.4c-39.7,214.8-399.3,509.5-580.7,562
		c-37.3-14.2-56.7-33.7-66.5-52.5c5.4-1.4,11.2-2.8,17.3-4.2c150.4-35.6,515.5-422.6,579.1-542.2
		C1085.8,2437.3,1114,2340,1133.2,2261.7z"/>
	<path class="st10" d="M1013.9,1067.4c0,0-143.2,104.9-211.6,224.9c-77.1,135.3-66.9,219.1,11.6,224.9"/>
	<path class="Graphic_x0020_Style_x0020_88" d="M923.9,1226.2c-0.2-19-149.5,207.5-136.6,260.9c5,20.6,85.9-9.5,88-17
		c2.1-7.4,27.1-179.2,28.4-187.7C905.1,1273.9,923.9,1226.2,923.9,1226.2z"/>
	<path class="Graphic_x0020_Style_x0020_51" d="M1514.5,896.9c4.5-17.9,0-40.2,15.6-49.1c9.9-7.9,22.8-14.9,33.1-23.4
		c-1.2-0.6-2.5-1-4-1.4c-28.7-6.9-53.8,17.5-70.3,55.3c-16.5,37.8-94.6,109.3-94.6,109.3c0.9,7.5,5.9,14.7,11.5,20.4
		C1452.8,980.2,1505.1,955.2,1514.5,896.9z"/>
	<path class="st11" d="M1563.2,824.4c-10.4,8.5-23.3,15.5-33.1,23.4c-15.6,8.9-11.2,31.2-15.6,49.1c-9.4,58.3-61.7,83.4-108.6,111.2
		c7.8,8,16.6,13.3,16.6,13.3s32-17.2,53.3-33.7c5.8-4.5,20.9-10.7,36.9-11.4c9.5-0.4,34.2,9.5,42.7,11.4c8.6,1.9,12.5-10.2,3.5-18.2
		c-8.6-8.4-21.9-7.2-22.9-50.9C1535.6,902.1,1590.7,837.4,1563.2,824.4z"/>
	<path class="st10" d="M1469.2,1015.4c-10.2,26.2-239.9,278.4-277.8,276.9c-11-0.4-24.1-9.9-37.1-23.1
		c-31.8-32.2-63.4-86.6-63.4-86.6s309.9-244.4,341.9-232.8c16.8,6.1,28.9,16.7,34.9,29.1C1473.3,990.2,1474,1002.9,1469.2,1015.4z"
		/>
	<path class="Graphic_x0020_Style_x0020_88" d="M1469.2,1015.4c-10.2,26.2-239.9,278.4-277.8,276.9c-11-0.4-24.1-9.9-37.1-23.1
		c51.1-42.5,203.6-170.6,278.5-246.7c16.1-16.4,27.4-30.9,35-43.5C1473.3,990.2,1474,1002.9,1469.2,1015.4z"/>
	<path class="st11" d="M1009,1095.7c0,0,19.1-74.3,15.5-146.2c-4.8-95.8,36.6-185,96.8-199.4c100.2-23.9,150.5,45.3,143.3,136
		c-7.2,90.7-17.6,194.1-55.8,176.6c-38.2-17.5-66.8-20.7-66.8-20.7l-28,88.7C1114,1130.7,1019.4,1128.1,1009,1095.7z"/>
	<path class="Graphic_x0020_Style_x0020_44" d="M1288,1882.7c0.5,4.3-282,104.4-571.5,40.4c-19-184.4,51.7-393,128.8-558
		l168.6-297.7c8.9,2.2,18,4,27.3,5.6c63.2,11,134.6,17.3,185.9,134.1c38.5,87.7,52.7,314.3,58,481
		C1288.5,1798.5,1288,1882.7,1288,1882.7z"/>
	<path class="Graphic_x0020_Style_x0020_89" d="M1288,1882.7c0.5,4.3-282,104.4-571.5,40.4c-19-184.4,51.7-393,128.8-558
		l168.6-297.7c8.9,2.2,18,4,27.3,5.6c0,0-209.8,336.1-104.8,493.7c72.5,108.7,247.3,123,348.6,121.5
		C1288.5,1798.5,1288,1882.7,1288,1882.7z"/>
	<path class="Graphic_x0020_Style_x0020_219" d="M1822.5,1776.2c-40-13.9-84-17-124.7-7.1c8.7,12.5,19.3,23.2,20.5,23.2
		c2.4,0,61.6-16.1,91,2.8c50.5,32.4,107.8,28,112.7-5c0.5-3.4-0.1-6.6-1.5-9.8c-6.1,4.1-13,7.3-19.9,9.4
		C1873.8,1796.3,1847,1785.1,1822.5,1776.2z"/>
	<path class="st11" d="M1831.7,1734.4c0,0,34.2-16.3,26.2-31.5c-14.1-26.7-167.3,31.5-167.3,31.5c-9,6.3-2,21.4,7.2,34.6
		c40.7-9.8,84.7-6.8,124.7,7.1c24.5,8.9,51.3,20.1,78.1,13.4c6.9-2.1,13.8-5.2,19.9-9.4C1908.3,1752.6,1831.7,1734.4,1831.7,1734.4z
		"/>
	<path class="Graphic_x0020_Style_x0020_44" d="M1758.9,1796.2c-14.6,26.2-334,65.8-415.4,22.2c-78.3-41.9-274.6-459.7-290-492.6
		c-0.6-1.4-1-2.1-1-2.1l162.7-141.1c71.7,79.5,154.4,405.9,189.4,478.6c34.9,72.7,270.6,52.4,305.5,52.4c26.6,0,49.4,32.6,52.4,59.8
		C1763.3,1781.9,1762.3,1789.9,1758.9,1796.2z"/>
	<path class="st9" d="M1018.7,954c0,0,66,30.2,92.5,10.6c26.5-19.6-12.2-70,14.3-79.5c26.5-9.5,20.7,18.6,35,23.3
		c14.3,4.8,5.3-52.5,23.3-57.3c18-4.8,81.7,27,102.4,21.2c20.7-5.8,27-36.1,27-36.1s-43-26.5-55.7-66.3
		c-12.7-39.8-126.2-80.1-158-23.3C1050.8,744.5,997.3,874.5,1018.7,954z"/>
	<g>
		<path class="Graphic_x0020_Style_x0020_86" d="M2962.9,3117.5c-41.6-4.5-87.2-9.6-129-22.6c19.7,32.2,48.7,60.7,84.4,83.8
			c132.7,39.4,281.7,41.2,449,0c26.9-17.4,49.9-37.8,68.1-60.6C3278.8,3131.3,3121.3,3130.3,2962.9,3117.5z"/>
		<path class="Graphic_x0020_Style_x0020_86" d="M3402.4,2837.5c-6-5.3-12.4-10.3-19-15.2c-161.6-15.6-321.9-14.1-481.3,0
			c-7.5,5.5-14.6,11.3-21.4,17.3c23.6,10.3,58,9.4,79.9,12.3C3108.6,2865.5,3256.5,2857.1,3402.4,2837.5z"/>
		<path class="Graphic_x0020_Style_x0020_99" d="M3402.4,2837.5c-145.9,19.6-293.8,28-441.7,14.4c-21.9-2.9-56.3-2-79.9-12.3
			c-47.5,42.3-76.1,96.4-76.1,155.3c0,35.6,10.4,69.4,29.2,100c41.8,13.1,87.4,18.1,129,22.6c158.4,12.8,315.9,13.8,472.5,0.6
			c28.9-36.2,45.5-78.3,45.5-123.2C3480.8,2935,3451.3,2880.1,3402.4,2837.5z"/>
		<g>
			<g>
				<path class="st12" d="M3028.9,2680.4c0,0,315.6,180.9,475.3-42.7s90.5-431.5-84-527.1s-414.4-21.2-489.3,94.9
					S3057.9,2636.4,3028.9,2680.4z"/>
				<path class="Graphic_x0020_Style_x0020_62" d="M3391.1,2241.7c0,0-162.3,363.1-472.6,510.3"/>
				<path class="Graphic_x0020_Style_x0020_62" d="M3497.3,2321.2c0,0-73.1-48.5-137.6-18.3c-16.8-72.4-92-141.5-92-141.5"/>
				<path class="Graphic_x0020_Style_x0020_62" d="M3487.6,2438.6c0,0-110-80.9-163.3-71.2c-13.9-48.9-70.5-156.4-172.4-198.9"/>
				<path class="Graphic_x0020_Style_x0020_62" d="M3530.3,2547c0,0-162.4-120.5-248.6-111.8c-2.1-44.9-101.6-191.7-255.8-225.1"/>
				<path class="Graphic_x0020_Style_x0020_62" d="M3424.8,2575.5c0,0-92.3-90.8-190.6-85.6c-7.3-54.4-113.4-178-210.5-196"/>
				<path class="Graphic_x0020_Style_x0020_62" d="M3365.5,2643.9c0,0-100.4-107.2-181.1-93.1c-0.7-58.7-70.9-132.4-159.7-167.6"/>
				<path class="Graphic_x0020_Style_x0020_62" d="M3323.3,2690c0,0-76-78.2-193.4-86.1c-5.4-43.4-61.8-140.9-118.3-147.8"/>
			</g>
			<g>
				<path class="st13" d="M2911.2,2595.6c0,0-4-213-107.9-233c-103.9-19.9-259.8-16.3-283.2,137.3s60,274.7,211.9,256.6
					C2883.8,2738.4,2836.7,2627.5,2911.2,2595.6z"/>
				<path class="Graphic_x0020_Style_x0020_74" d="M2563.1,2540.6c0,0,226.9-55.5,348.1,55c94.2,85.9,86.4,93.7,86.4,93.7"/>
				<path class="Graphic_x0020_Style_x0020_74" d="M2841.8,2432c0,0-2.1,93.2,27.8,131.5c-62.5-13.8-64.1,81.3-55.7,112.2"/>
				<path class="Graphic_x0020_Style_x0020_74" d="M2773.9,2388.9c0,0-12.4,81.5,44.9,150.7c-45,6.9-83.6,89.2-41.7,174.2"/>
				<path class="Graphic_x0020_Style_x0020_74" d="M2692,2397.2c0,0-1.2,91.4,60.8,132.5c-27.8,15.8-87.5,108.8-43,169.6"/>
				<path class="Graphic_x0020_Style_x0020_74" d="M2617,2422.6c0,0,32.2,84,67.2,103.6c-28,35.3-92.4,100.6-39.2,201.5"/>
				<path class="Graphic_x0020_Style_x0020_74" d="M2594.9,2479.1c0,0,12.3,38,32,50.1c-35,26.3-60.1,75.9-50,104.2"/>
			</g>
			<g>
				<path class="Graphic_x0020_Style_x0020_90" d="M3177.3,2805.1c0,0-82.3,157.1-45.9,229c36.5,71.9,300.2,251.2,451.3,65.7
					c151.1-185.5-13.6-441.9-159.5-405.4S3229.4,2806.4,3177.3,2805.1z"/>
				<path class="Graphic_x0020_Style_x0020_61" d="M3117.4,2752c0,0,11.5,20.2,128.7,116.4c117.3,96.1,276.7,164.1,361.1,145.4"/>
				<path class="Graphic_x0020_Style_x0020_61" d="M3218.5,3024.2c0,0,62.2-86.8,36.8-148.4c37.2-1.7,143.5-43.9,180-96.5"/>
				<path class="Graphic_x0020_Style_x0020_61" d="M3275.8,3093c0,0,58.5-69.8,46.2-169.9c35.6-3.1,193.5-75.1,219.6-166.8"/>
				<path class="Graphic_x0020_Style_x0020_61" d="M3336.8,3134.7c0,0,62.1-96.6,49.8-174.6c35.2-5.1,104.5-24,133.6-91.1"/>
				<path class="Graphic_x0020_Style_x0020_61" d="M3428.5,3139.3c0,0,57.3-93.3,19.8-148.5c45.9-2.6,129.2-58.4,137.1-119.3"/>
				<path class="Graphic_x0020_Style_x0020_61" d="M3537.4,3081c0,0,24.5-28.7-5.6-68.5c24.9-4,61.4-22.2,66-49.8"/>
			</g>
			<g>
				<path class="st12" d="M3044.1,2727.4c0,0-205.8-84-267.8,7.2c-62,91.3-122.9,242.2,14.7,328.1c137.6,85.9,288,55.9,333.3-97.1
					C3169.6,2812.6,3043.9,2812,3044.1,2727.4z"/>
				<path class="Graphic_x0020_Style_x0020_62" d="M2847.7,3038.3c0,0,38.2-245.6,196.4-310.8c57.9-23.8,73.3,24.6,73.3,24.6
					s34,12.9,25.4,59.1"/>
				<path class="Graphic_x0020_Style_x0020_62" d="M2858.7,2726.4c0,0,88.4,40.5,137.5,27.7c-39,54.2,51.4,95,84.5,99.7"/>
				<path class="Graphic_x0020_Style_x0020_62" d="M2789.4,2773.6c0,0,73,45.6,162.9,19.2c-12,46,51,116.9,149.7,111.8"/>
				<path class="Graphic_x0020_Style_x0020_62" d="M2763.6,2855.5c0,0,87.1,38.9,152.1-3.6c3.6,33.2,68.1,128.7,144.7,111.2"/>
				<path class="Graphic_x0020_Style_x0020_62" d="M2756.9,2937.9c0,0,93.8,3.8,127-21.7c22.3,41.4,58.3,130.1,176.9,120.8"/>
				<path class="Graphic_x0020_Style_x0020_62" d="M2802,2982.4c0,0,41.5,3.9,61.2-10c10.8,44.4,48,88.9,79.2,90.9"/>
			</g>
		</g>
		<path class="Graphic_x0020_Style_x0020_27" d="M3084.8,2726.4c0,0,35,36.9,23.9,84.8c11.9,0.1,25.5,0,25.5,0
			S3129.7,2766.4,3084.8,2726.4z"/>
	</g>
	<g>
		<linearGradient id="SVGID_4_" gradientUnits="userSpaceOnUse" x1="3700.4368" y1="2465.0364" x2="3860.5637" y2="2465.0364">
			<stop  offset="0" style="stop-color:#68B2FC"/>
			<stop  offset="1" style="stop-color:#529BF7"/>
		</linearGradient>
		<polygon class="st14" points="3860.6,2474 3780.5,2514.3 3700.4,2554.5 3705.6,2465 3710.8,2375.6 3785.7,2424.8 		"/>
		<linearGradient id="SVGID_5_" gradientUnits="userSpaceOnUse" x1="178.1031" y1="1683.4894" x2="326.7837" y2="1683.4894">
			<stop  offset="0" style="stop-color:#68B2FC"/>
			<stop  offset="1" style="stop-color:#529BF7"/>
		</linearGradient>
		<polygon class="st15" points="326.8,1703 252.4,1732.9 178.1,1762.8 189.3,1683.5 200.6,1604.1 263.7,1653.6 		"/>
		<linearGradient id="SVGID_6_" gradientUnits="userSpaceOnUse" x1="2864.5798" y1="1817.1658" x2="3074.8413" y2="1817.1658">
			<stop  offset="0" style="stop-color:#4085F0"/>
			<stop  offset="1" style="stop-color:#275DC9"/>
		</linearGradient>
		<polygon class="st16" points="3074.8,1928.9 2969.7,1887.5 2864.6,1846.1 2953,1775.7 3041.5,1705.4 3058.2,1817.2 		"/>
		<linearGradient id="SVGID_7_" gradientUnits="userSpaceOnUse" x1="345.9751" y1="2684.2971" x2="548.3041" y2="2684.2971">
			<stop  offset="0" style="stop-color:#4085F0"/>
			<stop  offset="1" style="stop-color:#275DC9"/>
		</linearGradient>
		<polygon class="st17" points="548.3,2781.7 447.1,2762.1 346,2742.5 413.5,2664.7 481.1,2586.9 514.7,2684.3 		"/>
	</g>
	<g>
		<polygon class="Graphic_x0020_Style_x0020_212" points="1804.3,2071.4 1782.4,2210.9 1545,2173.5 1566.9,2034 1674.7,2122.5 		"/>
		<polygon class="Graphic_x0020_Style_x0020_60" points="1804.3,2071.4 1674.7,2122.5 1566.9,2034 		"/>
	</g>
	<g>
		<g>
			<path class="Graphic_x0020_Style_x0020_78" d="M3337.8,832.6c0,101.1-82,183-183,183c-47.2,0-90.3-17.9-122.7-47.3
				c14.2-15.5,30.4-33.3,46.2-50.8c20.3,18.3,47.1,29.4,76.6,29.4c63.2,0,114.4-51.2,114.4-114.4c0-45.1-26-84-63.9-102.6
				c9.9-20.4,20.3-41.7,30-61.7C3296,698,3337.8,760.4,3337.8,832.6z"/>
			<path class="Graphic_x0020_Style_x0020_60" d="M3077.6,917l-46.3,50.7c-36.6-33.4-59.5-81.5-59.5-135.1c0-28,6.3-54.6,17.6-78.3
				l62,29.4c-7,14.8-11,31.4-11,48.9C3040.4,866,3054.7,896.1,3077.6,917z"/>
			<path class="Graphic_x0020_Style_x0020_44" d="M3235.3,668.2c-9.7,20.1-20.1,41.4-30,61.7c-15.2-7.5-32.4-11.7-50.5-11.7
				c-45.7,0-85.1,26.7-103.4,65.4l-62-29.4c29.3-61.9,92.4-104.7,165.4-104.7C3183.7,649.6,3211,656.3,3235.3,668.2z"/>
		</g>
		<g>
			<path class="Graphic_x0020_Style_x0020_44" d="M3499.8,1696.5c-48,4.9-93.6-8.8-129.7-35.2c-22.8,31-46.2,62.7-66.7,90.4
				c57.8,42.4,130.8,64.4,207.8,56.6c41.9-4.3,80.8-17,115.4-36.3l-56-97.4C3549.3,1686.2,3525.4,1693.9,3499.8,1696.5z"/>
			<path class="Graphic_x0020_Style_x0020_47" d="M3778.9,1479.8c-12-117.5-90.4-212.3-194.2-250.7c-12.5,34.3-25.9,70.7-38.7,105.5
				c64.8,24,113.6,83.2,121.1,156.6c7.9,77.3-32.4,148.3-96.5,183.4l56,97.4C3727.9,1715.5,3791.4,1602.6,3778.9,1479.8z"/>
			<path class="Graphic_x0020_Style_x0020_60" d="M3294.5,1529.2c-0.9-9.3-1.1-18.4-0.7-27.4l-112-11.8c-1.1,16.6-0.8,33.5,0.9,50.6
				c8.9,87.2,54.3,161.7,119.4,210.1l67-90.2C3328.4,1630.3,3300.1,1583.6,3294.5,1529.2z"/>
			<path class="Graphic_x0020_Style_x0020_44" d="M3584.7,1229.1c-12.5,34.3-25.9,70.7-38.7,105.5c-26-9.7-54.7-13.7-84.1-10.7
				c-74.4,7.6-134.2,57.7-157.6,123.8c-6.1,17.1-9.7,35.3-10.5,54.1l-112-11.8c1.9-27.7,7.5-54.5,16.5-79.8
				c37.5-105.7,133.2-185.8,252.1-198C3497.5,1207.4,3543.2,1213.8,3584.7,1229.1z"/>
		</g>
	</g>
	<path class="Graphic_x0020_Style_x0020_88" d="M1758.9,1796.2c-14.6,26.2-334,65.8-415.4,22.2c-78.3-41.9-274.6-459.7-290-492.6
		c45.3,5.3,91.9,75.4,157.1,209c87.4,179.1,69.5,252.2,242.9,264.5c122,8.7,246.1-12.6,309-26
		C1763.3,1781.9,1762.3,1789.9,1758.9,1796.2z"/>
	<path class="st10" d="M1462.8,901.8l-2.9-1.7C1460.1,900.2,1461.2,900.7,1462.8,901.8z"/>
	<path class="Graphic_x0020_Style_x0020_219" d="M1108.2,1011.9l33.8,30.1l-8.7,25.3C1118.3,1057.8,1111.2,1037.7,1108.2,1011.9z"/>
	<path class="Graphic_x0020_Style_x0020_209" d="M1017.5,1997c0,0-9.5,107.8-90.7,125.5"/>
</g>
</svg>
