<svg width="164" height="46" viewBox="0 0 164 46" fill="none" xmlns="http://www.w3.org/2000/svg">
<path fill-rule="evenodd" clip-rule="evenodd" d="M23.7571 7.51765C23.2656 7.35396 22.7344 7.35396 22.2429 7.51765L10.2944 11.4995L23 15.7344L35.7046 11.4986L23.7571 7.51765ZM38.8125 13.4929L24.4375 18.2845V38.2562L37.1738 34.0108C37.6509 33.8518 38.066 33.5468 38.3601 33.1388C38.6543 32.7308 38.8125 32.2406 38.8125 31.7376V13.4929ZM21.5625 38.2543V18.2845L7.1875 13.4929V31.7357C7.18748 32.2387 7.34575 32.7289 7.63987 33.1369C7.934 33.5448 8.34906 33.8499 8.82625 34.0089L21.5625 38.2543ZM21.3325 4.78928C22.4149 4.42831 23.5851 4.42831 24.6675 4.78928L40.7042 10.1349C40.9907 10.2303 41.2398 10.4134 41.4163 10.6584C41.5928 10.9033 41.6877 11.1976 41.6875 11.4995V31.7367C41.6876 32.8429 41.3396 33.9211 40.6929 34.8185C40.0462 35.716 39.1336 36.3873 38.0842 36.7372L23.4543 41.6132C23.1594 41.7114 22.8406 41.7114 22.5457 41.6132L7.91583 36.7372C6.86644 36.3873 5.95376 35.716 5.30705 34.8185C4.66035 33.9211 4.3124 32.8429 4.3125 31.7367V11.4995C4.31253 11.1978 4.40751 10.9037 4.58398 10.6589C4.76045 10.4142 5.00947 10.2312 5.29575 10.1358L21.3325 4.78928Z" fill="#797C80"/>
<path d="M56.2955 11.7273H61.4545L68.3636 28.5909H68.6364L75.5455 11.7273H80.7045V35H76.6591V19.0114H76.4432L70.0114 34.9318H66.9886L60.5568 18.9773H60.3409V35H56.2955V11.7273ZM92.8409 35.3409C91.0909 35.3409 89.5795 34.9773 88.3068 34.25C87.0417 33.5152 86.0682 32.4773 85.3864 31.1364C84.7045 29.7879 84.3636 28.2008 84.3636 26.375C84.3636 24.5795 84.7045 23.0038 85.3864 21.6477C86.0758 20.2841 87.0379 19.2235 88.2727 18.4659C89.5076 17.7008 90.9583 17.3182 92.625 17.3182C93.7008 17.3182 94.7159 17.4924 95.6705 17.8409C96.6326 18.1818 97.4811 18.7121 98.2159 19.4318C98.9583 20.1515 99.5417 21.0682 99.9659 22.1818C100.39 23.2879 100.602 24.6061 100.602 26.1364V27.3977H86.2955V24.625H96.6591C96.6515 23.8371 96.4811 23.1364 96.1477 22.5227C95.8144 21.9015 95.3485 21.4129 94.75 21.0568C94.1591 20.7008 93.4697 20.5227 92.6818 20.5227C91.8409 20.5227 91.1023 20.7273 90.4659 21.1364C89.8295 21.5379 89.3333 22.0682 88.9773 22.7273C88.6288 23.3788 88.4508 24.0947 88.4432 24.875V27.2955C88.4432 28.3106 88.6288 29.1818 89 29.9091C89.3712 30.6288 89.8902 31.1818 90.5568 31.5682C91.2235 31.947 92.0038 32.1364 92.8977 32.1364C93.4962 32.1364 94.0379 32.053 94.5227 31.8864C95.0076 31.7121 95.428 31.4583 95.7841 31.125C96.1402 30.7917 96.4091 30.3788 96.5909 29.8864L100.432 30.3182C100.189 31.3333 99.7273 32.2197 99.0455 32.9773C98.3712 33.7273 97.5076 34.3106 96.4545 34.7273C95.4015 35.1364 94.197 35.3409 92.8409 35.3409ZM108.196 24.7727V35H104.082V17.5455H108.014V20.5114H108.219C108.62 19.5341 109.26 18.7576 110.139 18.1818C111.026 17.6061 112.12 17.3182 113.423 17.3182C114.628 17.3182 115.677 17.5758 116.571 18.0909C117.473 18.6061 118.17 19.3523 118.662 20.3295C119.162 21.3068 119.408 22.4924 119.401 23.8864V35H115.287V24.5227C115.287 23.3561 114.984 22.4432 114.378 21.7841C113.779 21.125 112.95 20.7955 111.889 20.7955C111.17 20.7955 110.529 20.9545 109.969 21.2727C109.416 21.5833 108.98 22.0341 108.662 22.625C108.351 23.2159 108.196 23.9318 108.196 24.7727ZM132.298 17.5455V20.7273H122.264V17.5455H132.298ZM124.741 13.3636H128.855V29.75C128.855 30.303 128.938 30.7273 129.105 31.0227C129.279 31.3106 129.507 31.5076 129.787 31.6136C130.067 31.7197 130.378 31.7727 130.719 31.7727C130.976 31.7727 131.211 31.7538 131.423 31.7159C131.643 31.678 131.81 31.6439 131.923 31.6136L132.616 34.8295C132.397 34.9053 132.082 34.9886 131.673 35.0795C131.272 35.1705 130.779 35.2235 130.196 35.2386C129.166 35.2689 128.238 35.1136 127.412 34.7727C126.586 34.4242 125.931 33.8864 125.446 33.1591C124.969 32.4318 124.734 31.5227 124.741 30.4318V13.3636ZM147.381 11.7273L152.506 20.25H152.688L157.835 11.7273H162.642L155.472 23.3636L162.756 35H157.869L152.688 26.5341H152.506L147.324 35H142.46L149.812 23.3636L142.551 11.7273H147.381Z" fill="#797C80"/>
</svg>
